<?xml version="1.0" encoding="utf-8"?>
<!-- Generator: Adobe Illustrator 24.0.0, SVG Export Plug-In . SVG Version: 6.00 Build 0)  -->
<svg version="1.1" id="Layer_1" xmlns="http://www.w3.org/2000/svg" xmlns:xlink="http://www.w3.org/1999/xlink" x="0px" y="0px"
	 width="100px" height="100px" viewBox="0 0 100 100" style="enable-background:new 0 0 100 100;" xml:space="preserve">
<style type="text/css">
	.st0{fill:#D1005D;}
</style>
<path class="st0" d="M72.9,26.3c-0.1-0.4-0.5-0.8-0.9-0.9L58.6,22l-7.5-11.4c-0.5-0.8-1.8-0.8-2.3,0L41.4,22L28,25.5
	c-0.4,0.1-0.8,0.4-0.9,0.9c-0.1,0.4,0,0.9,0.2,1.3l8.8,10.5l-0.8,13.6c0,0.5,0.2,0.9,0.5,1.2c0.4,0.3,0.9,0.3,1.3,0.2l7.2-2.8
	l-2.6,17.2c-2.7,0.5-6.5,2.4-7.1,7.5h-2c-0.7,0-1.3,0.6-1.3,1.3v12.4c0,0.7,0.6,1.3,1.3,1.3h34.7c0.7,0,1.4-0.6,1.4-1.3V76.3
	c0-0.7-0.6-1.3-1.4-1.3h-2c-0.6-5.1-4.3-7.1-7.1-7.5l-2.6-17.2l7.2,2.8c0.2,0,0.3,0.1,0.5,0.1c0.3,0,0.6-0.1,0.8-0.3
	c0.4-0.3,0.6-0.7,0.5-1.2l-0.8-13.6l8.8-10.5C73,27.2,73.1,26.7,72.9,26.3z M66,87.3H34v-9.7h1.9h28.1H66V87.3z M62.6,75H37.4
	c0.7-4.7,5.1-5,5.6-5H57C57.2,70,61.9,70.1,62.6,75z M55.5,67.3h-11l2.7-18.2L50,48l2.8,1.1L55.5,67.3z M61.5,36.8
	c-0.2,0.3-0.3,0.6-0.3,0.9l0.7,12l-11.4-4.4c-0.3-0.1-0.7-0.1-1,0l-11.4,4.4l0.7-12c0-0.3-0.1-0.7-0.3-0.9l-7.8-9.3l11.9-3.1
	c0.3-0.1,0.6-0.3,0.8-0.6L50,13.7l6.6,10.1c0.2,0.3,0.5,0.5,0.8,0.6l11.9,3.1L61.5,36.8z"/>
</svg>
