<?xml version="1.0" encoding="utf-8"?>
<!-- Generator: Adobe Illustrator 24.0.0, SVG Export Plug-In . SVG Version: 6.00 Build 0)  -->
<svg version="1.1" id="Layer_1" xmlns="http://www.w3.org/2000/svg" xmlns:xlink="http://www.w3.org/1999/xlink" x="0px" y="0px"
	 width="100px" height="100px" viewBox="0 0 100 100" style="enable-background:new 0 0 100 100;" xml:space="preserve">
<style type="text/css">
	.st0{fill:#D1005D;}
	.st1{fill:#D1005D;stroke:#000000;stroke-width:2;stroke-linecap:round;stroke-linejoin:round;stroke-miterlimit:10;}
	.st2{fill:#FFFFFF;}
	.st3{fill:none;}
</style>
<g>
	<path class="st0" d="M49.1,76.6c0.2,0.2,0.6,0.4,0.9,0.4c0.3,0,0.6-0.1,0.9-0.4c0.8-0.8,19.8-19,19.8-40.9C70.7,21.5,62.9,13,50,13
		c-12.9,0-20.7,8.5-20.7,22.7C29.3,57.6,48.3,75.8,49.1,76.6z M50,15.6c16.3,0,18.1,14.1,18.1,20.1c0,18.2-14.3,34.2-18.1,38.1
		c-3.7-3.9-18.1-19.9-18.1-38.1C31.9,29.7,33.7,15.6,50,15.6z"/>
	<path class="st0" d="M61.3,26.4c-0.5-0.5-1.4-0.4-1.8,0.2L46.7,42l-6.1-8.2c-0.4-0.6-1.3-0.7-1.8-0.3c-0.6,0.4-0.7,1.2-0.3,1.8
		l7.1,9.5c0.2,0.3,0.6,0.5,1,0.5c0,0,0,0,0,0c0.4,0,0.8-0.2,1-0.5l13.8-16.8C61.9,27.6,61.8,26.8,61.3,26.4z"/>
	<path class="st0" d="M64,65c-0.7-0.1-1.3,0.5-1.4,1.2c-0.1,0.7,0.5,1.3,1.2,1.4c15.4,1.5,23.7,5.3,23.7,8.1
		c0,3.7-14.2,8.8-37.4,8.8c-23.2,0-37.4-5.1-37.4-8.8c0-2.8,8.4-6.6,23.9-8.1c0.7-0.1,1.2-0.7,1.2-1.4c-0.1-0.7-0.7-1.2-1.4-1.2
		C30,65.5,10,68.1,10,75.6C10,83,30.6,87,50,87c19.4,0,40-4,40-11.4C90,68.1,70.1,65.6,64,65z"/>
</g>
</svg>
