<?xml version="1.0" encoding="utf-8"?>
<!-- Generator: Adobe Illustrator 24.0.0, SVG Export Plug-In . SVG Version: 6.00 Build 0)  -->
<svg version="1.1" id="Layer_1" xmlns="http://www.w3.org/2000/svg" xmlns:xlink="http://www.w3.org/1999/xlink" x="0px" y="0px"
	 width="100px" height="100px" viewBox="0 0 100 100" style="enable-background:new 0 0 100 100;" xml:space="preserve">
<style type="text/css">
	.st0{fill:#D1005D;}
	.st1{fill:#D1005D;stroke:#000000;stroke-width:2;stroke-linecap:round;stroke-linejoin:round;stroke-miterlimit:10;}
</style>
<g>
	<g>
		<path class="st0" d="M25,69.5c-4.5,0-8.2-3.7-8.2-8.2V55c0-4.5,3.7-8.2,8.2-8.2c4.5,0,8.1,3.7,8.1,8.2v6.4
			C33.1,65.8,29.5,69.5,25,69.5z M25,48.9c-3.3,0-6,2.7-6,6v6.4c0,3.3,2.7,6,6,6c3.3,0,6-2.7,6-6V55C31,51.6,28.3,48.9,25,48.9z"/>
		<path class="st0" d="M33.7,89.5H15.9c-3.2,0-5.9-2.6-5.9-5.9V77c0-1.4,0.8-2.7,2.5-4c1.3-1,2.8-1.8,4.6-2.3l5.5-1.6
			c0.6-0.2,1.2,0.2,1.3,0.7c0.2,0.6-0.2,1.2-0.7,1.3l-5.5,1.6c-1.5,0.4-2.8,1.1-3.9,1.9c-1.1,0.8-1.6,1.6-1.6,2.3v6.6
			c0,2.1,1.7,3.7,3.7,3.7h17.9c2.1,0,3.7-1.7,3.7-3.7V77c0-0.6-0.6-1.4-1.6-2.3c-1.1-0.9-2.4-1.5-3.9-1.9l-5.4-1.5
			c-0.6-0.2-0.9-0.8-0.7-1.3c0.2-0.6,0.7-0.9,1.3-0.7l5.4,1.5c1.8,0.5,3.3,1.3,4.6,2.3c1.6,1.3,2.5,2.6,2.5,4v6.6
			C39.6,86.9,37,89.5,33.7,89.5z"/>
		<path class="st0" d="M22.9,71.3c-0.6,0-1.1-0.5-1.1-1.1v-1.8c0-0.6,0.5-1.1,1.1-1.1c0.6,0,1.1,0.5,1.1,1.1v1.8
			C23.9,70.8,23.5,71.3,22.9,71.3z"/>
		<path class="st0" d="M26.9,71.3c-0.6,0-1.1-0.5-1.1-1.1v-1.9c0-0.6,0.5-1.1,1.1-1.1c0.6,0,1,0.5,1,1.1v1.9
			C27.9,70.9,27.5,71.3,26.9,71.3z"/>
		<path class="st0" d="M24.8,78.7c-2.9,0-5.2-3-5.2-6.8c0-0.4,0-0.8,0.1-1.3c0.1-0.6,0.6-1,1.2-0.9c0.6,0.1,1,0.6,0.9,1.2
			c0,0.3-0.1,0.6-0.1,0.9c0,2.5,1.4,4.6,3.1,4.6c1.7,0,3.1-2.1,3.1-4.6c0-0.3,0-0.6-0.1-0.9c-0.1-0.6,0.3-1.1,0.9-1.2
			c0.6-0.1,1.1,0.3,1.2,0.9c0.1,0.4,0.1,0.8,0.1,1.3C30,75.7,27.7,78.7,24.8,78.7z"/>
		<path class="st0" d="M27.6,56.1c-0.8,0-1.5-0.2-2.2-0.5c-0.9-0.4-1.4-1-1.8-1.4c-0.4-0.5-0.7-0.7-1.1-0.8
			c-0.9-0.2-2.3,0.6-3.8,2.2c-0.4,0.4-1.1,0.5-1.5,0.1c-0.4-0.4-0.5-1.1-0.1-1.5c2.1-2.3,4.1-3.3,5.8-2.9c1,0.2,1.6,0.9,2.1,1.4
			c0.4,0.4,0.7,0.7,1.2,1c0.9,0.4,2.2,0.6,5.1-1c0.5-0.3,1.2-0.1,1.5,0.4c0.3,0.5,0.1,1.2-0.4,1.5C30.6,55.6,29,56.1,27.6,56.1z"/>
	</g>
	<g>
		<path class="st0" d="M75.4,69.5c-4.5,0-8.1-3.7-8.1-8.2V55c0-4.5,3.6-8.2,8.1-8.2c4.5,0,8.2,3.7,8.2,8.2v6.4
			C83.5,65.8,79.9,69.5,75.4,69.5z M75.4,48.9c-3.3,0-6,2.7-6,6v6.4c0,3.3,2.7,6,6,6c3.3,0,6-2.7,6-6V55
			C81.4,51.6,78.7,48.9,75.4,48.9z"/>
		<path class="st0" d="M84.1,89.5H66.3c-3.3,0-5.9-2.6-5.9-5.9V77c0-1.4,0.8-2.7,2.5-4c1.3-1,2.8-1.8,4.6-2.3l5.5-1.6
			c0.6-0.2,1.1,0.2,1.3,0.7c0.1,0.6-0.2,1.2-0.7,1.3L68,72.8c-1.5,0.4-2.8,1.1-3.9,1.9c-1,0.8-1.6,1.6-1.6,2.3v6.6
			c0,2.1,1.7,3.7,3.8,3.7h17.8c2.1,0,3.8-1.7,3.8-3.7V77c0-0.6-0.6-1.4-1.6-2.3c-1.1-0.9-2.4-1.5-3.9-1.9L77,71.3
			c-0.6-0.2-0.9-0.8-0.7-1.3c0.2-0.6,0.7-0.9,1.3-0.7l5.4,1.5c1.8,0.5,3.3,1.3,4.6,2.3c1.6,1.3,2.5,2.6,2.5,4v6.6
			C90,86.9,87.4,89.5,84.1,89.5z"/>
		<path class="st0" d="M73.3,71.3c-0.6,0-1.1-0.5-1.1-1.1v-1.8c0-0.6,0.5-1.1,1.1-1.1c0.6,0,1.1,0.5,1.1,1.1v1.8
			C74.3,70.8,73.9,71.3,73.3,71.3z"/>
		<path class="st0" d="M77.3,71.3c-0.6,0-1.1-0.5-1.1-1.1v-1.9c0-0.6,0.5-1.1,1.1-1.1c0.6,0,1.1,0.5,1.1,1.1v1.9
			C78.3,70.9,77.9,71.3,77.3,71.3z"/>
		<path class="st0" d="M75.2,78.7c-2.9,0-5.2-3-5.2-6.8c0-0.4,0-0.8,0.1-1.3c0.1-0.6,0.6-1,1.2-0.9c0.6,0.1,1,0.6,0.9,1.2
			c0,0.3-0.1,0.6-0.1,0.9c0,2.5,1.4,4.6,3.1,4.6c1.7,0,3.1-2.1,3.1-4.6c0-0.3,0-0.6-0.1-0.9c-0.1-0.6,0.3-1.1,0.9-1.2
			c0.6-0.1,1.1,0.3,1.2,0.9c0.1,0.4,0.1,0.8,0.1,1.3C80.4,75.7,78.1,78.7,75.2,78.7z"/>
		<path class="st0" d="M78,56.1c-0.8,0-1.5-0.2-2.2-0.5c-0.9-0.4-1.4-1-1.8-1.4c-0.4-0.5-0.7-0.7-1.1-0.8c-0.9-0.2-2.3,0.6-3.8,2.2
			c-0.4,0.4-1.1,0.5-1.5,0.1c-0.4-0.4-0.5-1.1-0.1-1.5c2.2-2.3,4.1-3.3,5.8-2.9c1,0.2,1.6,0.9,2.1,1.4c0.4,0.4,0.7,0.7,1.2,1
			c0.8,0.4,2.2,0.6,5.1-1c0.5-0.3,1.2-0.1,1.5,0.4c0.3,0.5,0.1,1.2-0.4,1.5C81,55.6,79.4,56.1,78,56.1z"/>
	</g>
	<g>
		<g>
			<g>
				<path class="st0" d="M58.5,23.9H36.8c-0.6,0-1.1-0.5-1.1-1.1c0-0.6,0.5-1.1,1.1-1.1h21.7c0.6,0,1.1,0.5,1.1,1.1
					C59.6,23.4,59.1,23.9,58.5,23.9z"/>
				<path class="st0" d="M49.6,30.4H36.8c-0.6,0-1.1-0.5-1.1-1.1s0.5-1.1,1.1-1.1h12.8c0.6,0,1.1,0.5,1.1,1.1S50.2,30.4,49.6,30.4z"
					/>
			</g>
			<path class="st0" d="M35.1,46.1c-0.1,0-0.3,0-0.4-0.1c-0.4-0.2-0.7-0.6-0.7-1v-7.7c-3.9-2.9-6.1-7-6.1-11.3
				c0-8.6,8.9-15.6,19.8-15.6c10.9,0,19.8,7,19.8,15.6c0,8.6-8.9,15.6-19.8,15.6c-2.3,0-4.6-0.3-6.8-0.9l-5,5.1
				C35.6,46,35.3,46.1,35.1,46.1z M47.6,12.6c-9.7,0-17.6,6-17.6,13.4c0,3.7,2.1,7.3,5.6,9.8c0.3,0.2,0.5,0.5,0.5,0.9v5.6l3.7-3.7
				c0.3-0.3,0.7-0.4,1.1-0.3c2.2,0.7,4.5,1,6.8,1c9.7,0,17.6-6,17.6-13.4C65.3,18.7,57.4,12.6,47.6,12.6z"/>
		</g>
		<g>
			<path class="st0" d="M65.2,52.1c-0.3,0-0.5-0.1-0.8-0.3l-4-4c-1.8,0.5-3.6,0.7-5.5,0.7c-5.4,0-10.4-2.1-13.4-5.6
				c-0.4-0.5-0.3-1.1,0.1-1.5c0.5-0.4,1.1-0.4,1.5,0.1c2.6,3,7.1,4.8,11.8,4.8c1.9,0,3.7-0.3,5.5-0.8c0.4-0.1,0.8,0,1.1,0.3l2.7,2.7
				v-4.1c0-0.4,0.2-0.7,0.5-0.9c2.9-2,4.5-4.9,4.5-7.9c0-2-0.7-3.9-2.1-5.6c-0.4-0.4-0.3-1.1,0.2-1.5c0.4-0.4,1.1-0.3,1.5,0.2
				c1.7,2.1,2.6,4.5,2.6,6.9c0,3.5-1.8,6.9-5,9.3V51c0,0.4-0.3,0.8-0.7,1C65.5,52,65.4,52.1,65.2,52.1z"/>
		</g>
	</g>
</g>
</svg>
