<?xml version="1.0" encoding="utf-8"?>
<!-- Generator: Adobe Illustrator 24.0.0, SVG Export Plug-In . SVG Version: 6.00 Build 0)  -->
<svg version="1.1" id="Layer_1" xmlns="http://www.w3.org/2000/svg" xmlns:xlink="http://www.w3.org/1999/xlink" x="0px" y="0px"
	 width="100px" height="100px" viewBox="0 0 100 100" style="enable-background:new 0 0 100 100;" xml:space="preserve">
<style type="text/css">
	.st0{fill:#D1005D;}
</style>
<g id="responsive" transform="translate(0 -32)">
	<g id="Group_4560" transform="translate(0 32)">
		<g id="Group_4559" transform="translate(0 0)">
			<path id="Path_432" class="st0" d="M86,50h-1.3V21.7c0-3.7-3-6.7-6.7-6.7H22c-3.7,0-6.7,3-6.7,6.7v20.2H14c-2.2,0-4,1.8-4,4
				c0,0,0,0,0,0v35c0,2.2,1.8,4,4,4l0,0h50.7c0.7,0,1.3-0.6,1.3-1.3l0,0c0-3.7-3-6.7-6.7-6.7h-4v-8.1h16V81c0,2.2,1.8,4,4,4l0,0H86
				c2.2,0,4-1.8,4-4l0,0V54C90,51.8,88.2,50,86,50L86,50z M39.3,81c0,0.7-0.6,1.3-1.3,1.3l0,0H14c-0.7,0-1.3-0.6-1.3-1.3l0,0v-1.4
				h26.7V81z M39.3,76.9H12.7V46c0-0.7,0.6-1.3,1.3-1.3l0,0h24c0.7,0,1.3,0.6,1.3,1.3l0,0L39.3,76.9z M59.3,79.6
				c1.7,0,3.2,1.1,3.8,2.7H41.8c0.2-0.4,0.2-0.9,0.2-1.3v-1.4H59.3z M42,76.9v-8.1h2.7v8.1L42,76.9z M47.3,76.9v-8.1h5.3v8.1
				L47.3,76.9z M71.3,66.2H42v-8.1h29.3V66.2z M71.3,54v1.3H42V46c0-0.6-0.2-1.3-0.5-1.8c0,0,0,0,0.1,0l13.2-13.3
				c0.5-0.5,0.5-1.4,0-1.9c-0.5-0.5-1.4-0.5-1.9,0L39.7,42.2c0,0,0,0.1-0.1,0.1c-0.5-0.2-1.1-0.4-1.7-0.4H18V21.7c0-2.2,1.8-4,4-4
				h56c2.2,0,4,1.8,4,4V50h-6.7C73.1,50,71.3,51.8,71.3,54C71.3,54,71.3,54,71.3,54z M87.3,81c0,0.7-0.6,1.3-1.3,1.3l0,0H75.3
				c-0.7,0-1.3-0.6-1.3-1.3c0,0,0,0,0,0v-1.4h13.3L87.3,81z M87.3,76.9H74V54c0-0.7,0.6-1.3,1.3-1.3l0,0H86c0.7,0,1.3,0.6,1.3,1.3
				l0,0L87.3,76.9z"/>
		</g>
	</g>
	<g id="Group_4566" transform="translate(33.942 44.099)">
		<g id="Group_4565">
			<path id="Path_435" class="st0" d="M29,16.8c-0.5-0.5-1.3-0.5-1.9,0L13.9,30.1c-0.5,0.5-0.5,1.4,0,1.9c0.5,0.5,1.4,0.5,1.9,0l0,0
				l0,0L29,18.7C29.5,18.1,29.5,17.3,29,16.8z"/>
		</g>
	</g>
	<g id="Group_4570" transform="translate(35.062 73.086)">
		<g id="Group_4569">
			<path id="Path_437" class="st0" d="M15,19.7L15,19.7c-0.8,0-1.3,0.6-1.3,1.4c0,0.7,0.6,1.3,1.3,1.3c0.7,0,1.3-0.6,1.3-1.4
				C16.3,20.3,15.7,19.7,15,19.7z"/>
		</g>
	</g>
	<g id="Group_4572" transform="translate(32.627 36.834)">
		<g id="Group_4571" transform="translate(0 0)">
			<path id="Path_438" class="st0" d="M20,15.6h-5.3c-0.7,0-1.3,0.6-1.3,1.3c0,0.7,0.6,1.3,1.3,1.3H20c0.7,0,1.3-0.6,1.3-1.3
				C21.4,16.2,20.8,15.6,20,15.6z"/>
		</g>
	</g>
</g>
</svg>
