<?xml version="1.0" encoding="utf-8"?>
<!-- Generator: Adobe Illustrator 24.0.0, SVG Export Plug-In . SVG Version: 6.00 Build 0)  -->
<svg version="1.1" id="Layer_1" xmlns="http://www.w3.org/2000/svg" xmlns:xlink="http://www.w3.org/1999/xlink" x="0px" y="0px"
	 width="100px" height="100px" viewBox="0 0 100 100" style="enable-background:new 0 0 100 100;" xml:space="preserve">
<style type="text/css">
	.st0{fill:#D1005D;}
	.st1{fill:#D1005D;stroke:#000000;stroke-width:2;stroke-linecap:round;stroke-linejoin:round;stroke-miterlimit:10;}
</style>
<path class="st0" d="M85.5,82H73.7c1.5-1.3,2.4-3,2.4-4.8c0-0.1,0-0.2,0-0.3l-6.7-24.5c-0.9-4-3.5-5.3-6.2-6.1h0
	c-0.4-0.1-0.9-0.2-1.5-0.4l-4.4-2.3c2.3-1.5,4.4-3.6,5.2-6.1h1.1c1,0,2-0.7,2.4-1.7c1.2-0.5,2.1-1.7,2.1-3.1V27c0-1.4-0.9-2.6-2.1-3
	C65.5,16.1,59,10,50.8,10c-8.2,0-14.7,6.1-15.1,14c-1.2,0.5-2.1,1.7-2.1,3v5.8c0,1.8,1.5,3.3,3.3,3.3H37c0.7,0,1.3-0.2,1.9-0.6v0.2
	c0,3.3,2.7,6.2,5.4,8L40,45.9c-1.2,0.2-1.7,0.3-1.9,0.4c0,0,0,0-0.1,0c-4.1,0.7-5.2,3.5-6,6.3l-7.1,24.3c0,0.1,0,0.2,0,0.3
	c0,1.8,0.9,3.5,2.4,4.8H14.5c-0.7,0-1.2,0.5-1.2,1.2v5.6c0,0.7,0.5,1.2,1.2,1.2h71c0.6,0,1.2-0.5,1.2-1.2v-5.6
	C86.7,82.6,86.2,82,85.5,82z M51.3,46.9c0,0-0.1,0.1-0.1,0.1l-0.3,0.5L50.6,47c-0.1-0.2-0.2-0.3-0.4-0.4l-1-1.3
	c0.7,0.1,1.3,0.1,1.6,0.1c0,0,0,0,0.1,0c0.3,0,0.9,0,1.6-0.1L51.3,46.9z M55.5,45.4l4,2.1l-2.9,4.3l-0.2-2.6c0-0.4-0.3-0.8-0.6-1
	l-1.8-1L55.5,45.4z M63.7,32.7V27c0-0.5,0.4-0.9,0.9-0.9h0.1c0.5,0,0.9,0.4,0.9,0.9v5.8c0,0.5-0.4,0.9-0.9,0.9h-0.1
	C64.1,33.6,63.7,33.2,63.7,32.7z M37.9,32.7c0,0.5-0.4,0.9-0.9,0.9h-0.1c-0.5,0-0.9-0.4-0.9-0.9V27c0-0.5,0.4-0.9,0.9-0.9H37
	c0.5,0,0.9,0.4,0.9,0.9V32.7z M38.1,23.9c0.5-6.5,5.9-11.5,12.8-11.5c6.8,0,12.2,5,12.7,11.5c-0.3,0.1-0.6,0.2-0.8,0.4v-0.4
	c0-5.5-5.3-9.9-12-9.9c-6.5,0-11.8,4.4-11.8,9.9v0.4C38.6,24.1,38.4,24,38.1,23.9z M41.3,35.6V23.9c0-4,4.3-7.5,9.6-7.5
	c5.1,0,9.5,3.4,9.5,7.5v11.3h-3.6c-0.2-1.2-1.2-2.1-2.4-2.1h-5.7c-1.4,0-2.5,1.1-2.5,2.5v1.6c0,1.3,1.1,2.5,2.5,2.5h5.7
	c1.2,0,2.2-0.9,2.4-2.1h3.1c-1,2.2-3.6,4.1-5.8,5.1c0,0,0,0,0,0c-0.2,0.1-0.4,0.2-0.7,0.3c-0.4,0.1-1.5,0.3-2.5,0.3
	c-1.1-0.1-2.5-0.2-2.9-0.3C45.2,41.8,41.3,38.7,41.3,35.6z M54.4,35.5l-0.1,1.7l-5.8-0.1l0.1-1.7L54.4,35.5L54.4,35.5z M46.1,45.4
	l1.5,1.9l-1.8,1c-0.4,0.2-0.6,0.6-0.6,1l-0.2,2.6l-2.9-4.3L46.1,45.4z M30.2,81.1c-1.8-0.8-2.9-2.2-3-3.7l7.1-24.1
	c0.8-2.8,1.6-4.2,4.1-4.6v0c0,0,0,0,0,0v0c0.1,0,0.1,0,0.2-0.1c0.3-0.1,0.7-0.1,1.2-0.2l5.2,7.7c0.2,0.3,0.6,0.5,1,0.5
	c0.1,0,0.2,0,0.3,0c0.5-0.1,0.8-0.6,0.9-1.1l0.4-5.5l1.5-0.8l0.7,1.2c0.2,0.4,0.6,0.6,1,0.6h0c0.4,0,0.8-0.2,1-0.6l0.7-1.2L54,50
	l0.4,5.5c0,0.5,0.4,0.9,0.9,1.1c0.1,0,0.2,0,0.3,0c0.4,0,0.8-0.2,1-0.5l5.1-7.7c0.2,0,0.4,0.1,0.5,0.1c0,0,0.1,0,0.1,0
	c2.5,0.8,4,1.7,4.6,4.4l6.7,24.4c-0.1,1.5-1.4,3.1-3.3,3.8c-0.4,0.1-0.6,0.5-0.7,0.8h-1.8c0.8-1,1.2-2.2,1.2-3.6V66.3
	c0-3.3-2.7-6-6-6h-25c-3.3,0-6,2.7-6,6v12.2c0,1.3,0.5,2.6,1.2,3.6h-2.5C30.9,81.6,30.6,81.3,30.2,81.1z M34.6,78.4V66.3
	c0-2,1.6-3.6,3.6-3.6h25c2,0,3.6,1.6,3.6,3.6v12.2c0,2-1.6,3.6-3.6,3.6h-25C36.2,82,34.6,80.4,34.6,78.4z M84.3,87.6H15.7v-3.2h22.5
	h25h21.2V87.6z"/>
</svg>
