<?xml version="1.0" encoding="utf-8"?>
<!-- Generator: Adobe Illustrator 24.0.0, SVG Export Plug-In . SVG Version: 6.00 Build 0)  -->
<svg version="1.1" id="Layer_1" xmlns="http://www.w3.org/2000/svg" xmlns:xlink="http://www.w3.org/1999/xlink" x="0px" y="0px"
	 width="100px" height="100px" viewBox="0 0 100 100" style="enable-background:new 0 0 100 100;" xml:space="preserve">
<style type="text/css">
	.st0{fill:#D1005D;}
	.st1{fill:#D1005D;stroke:#000000;stroke-width:2;stroke-linecap:round;stroke-linejoin:round;stroke-miterlimit:10;}
</style>
<path class="st0" d="M80.1,67.9c-7-4.1-12.1-10.7-14.2-18.5l-3.4-12.9c-2.5-9.6-11.1-16.4-21-16.7l-1.3-4.8
	c-0.9-3.5-4.6-5.6-8.1-4.7c-3.5,0.9-5.6,4.6-4.7,8.1l1.3,4.8c-8.4,5.3-12.4,15.4-9.8,24.9L22.3,61c0.7,2.6,1,5.2,1,7.9
	c0,5.3-1.4,10.6-4.1,15.2c-0.8,1.3-0.7,2.9,0.3,4c0.7,0.9,1.7,1.4,2.9,1.4c0.3,0,0.6,0,0.9-0.1l19.1-5.1c1.5,3.4,4.8,5.6,8.5,5.6
	c2.7,0,5.2-1.1,6.9-3.1c1.8-2,2.6-4.6,2.3-7.3l19.1-5.1c1.6-0.4,2.7-1.9,2.7-3.5C81.9,69.7,81.2,68.5,80.1,67.9z M30.3,14.6
	c0.7-1.2,2-2,3.4-2c1.8,0,3.4,1.2,3.8,2.9l1.1,4.2c-0.1,0-0.2,0-0.4,0c-0.4,0-0.8,0.1-1.2,0.2c-0.2,0-0.4,0.1-0.7,0.1
	c-0.5,0.1-0.9,0.2-1.4,0.3c-0.1,0-0.2,0-0.3,0.1c-0.1,0-0.2,0.1-0.2,0.1c-0.5,0.1-1,0.3-1.5,0.5c-0.1,0-0.3,0.1-0.4,0.1
	c-0.5,0.2-1,0.4-1.5,0.6c0,0-0.1,0-0.1,0l-1.1-4.2C29.6,16.6,29.8,15.6,30.3,14.6z M57.6,80.3c0.2,3.1-1.9,6-4.9,6.8
	c-3,0.8-6.2-0.6-7.7-3.4L57.6,80.3z M78.5,72l-55.9,15c-0.4,0.1-0.8,0-1-0.4c-0.2-0.3-0.3-0.7-0.1-1.1c2.9-5,4.4-10.8,4.4-16.6
	c0-2.9-0.4-5.8-1.1-8.6l-3.4-12.9c-2.3-8.8,1.5-18,9.4-22.5l0,0c1.1-0.6,2.3-1.1,3.5-1.5c0.4-0.1,0.8-0.3,1.1-0.4
	c1.3-0.4,2.7-0.6,4.1-0.6c0.3,0,0.6,0,0.9,0h0.2c9,0,16.9,6.1,19.2,14.8L63.3,50c2.3,8.5,7.9,15.7,15.5,20.1
	c0.3,0.2,0.5,0.5,0.5,0.8C79.3,71.4,79,71.8,78.5,72L78.5,72z"/>
</svg>
