<?xml version="1.0" encoding="utf-8"?>
<!-- Generator: Adobe Illustrator 24.0.0, SVG Export Plug-In . SVG Version: 6.00 Build 0)  -->
<svg version="1.1" id="Layer_1" xmlns="http://www.w3.org/2000/svg" xmlns:xlink="http://www.w3.org/1999/xlink" x="0px" y="0px"
	 width="100px" height="100px" viewBox="0 0 100 100" style="enable-background:new 0 0 100 100;" xml:space="preserve">
<style type="text/css">
	.st0{fill:#D1005D;}
	.st1{fill:#D1005D;stroke:#000000;stroke-width:2;stroke-linecap:round;stroke-linejoin:round;stroke-miterlimit:10;}
</style>
<g>
	<path class="st0" d="M89.9,60.3l-0.3-1.1c-0.5-1.8-2.1-3.1-4-3.1c-0.6,0-1.2,0.2-1.7,0.5l-2.8,1.7c-0.5-1.4-1.6-2.5-3-3
		c-0.9-0.3-1.9-0.3-2.9,0L63.5,60l-29.4-3.7c-1-0.1-2,0-2.9,0.3l-18.1,6.2c-0.7,0.2-1,0.9-0.8,1.6c0.2,0.7,0.9,1,1.6,0.8L32,58.9
		c0.6-0.2,1.2-0.3,1.8-0.2l31,3.9c0.7,0.1,1.3,0.8,1.2,1.5l-0.1,1.7c-0.1,0.9-0.8,1.6-1.7,1.6l-16,0.3c0,0,0,0,0,0l-0.1,0l-6.5-0.2
		c-0.7,0-1.3,0.5-1.3,1.2c0,0.7,0.5,1.2,1.2,1.3l6.2,0.2l9.4,5.2c0.4,0.2,0.9,0.2,1.2,0l26.9-16.6c0.1-0.1,0.2-0.1,0.4-0.1
		c0.7,0,1.4,0.5,1.6,1.2l0.3,1.1c0.2,0.9-0.1,1.9-0.9,2.5L58.2,84.4c-0.7,0.5-1.4,0.9-2.2,1.1l-1.3,0.4c-0.7,0.2-1.4,0.2-2-0.1
		l-28.1-9.3c-1.6-0.5-3.3-0.4-4.8,0.4l-8.9,4.4c-0.6,0.3-0.9,1-0.6,1.6c0.3,0.6,1,0.9,1.7,0.6l9-4.4c0.9-0.5,2-0.5,2.9-0.2l28.1,9.3
		c0.6,0.2,1.2,0.3,1.9,0.3c0.5,0,1.1-0.1,1.6-0.2l1.3-0.4c1.1-0.3,2.1-0.8,3-1.5l28.4-21.1C89.6,64.2,90.3,62.2,89.9,60.3z
		 M76.1,57.7c0.4-0.1,0.8-0.1,1.2,0c0.9,0.3,1.5,1.1,1.6,2l-10.6,6.6c0-0.1,0-0.1,0-0.2l0.2-1.7c0.1-1.2-0.4-2.4-1.2-3.2L76.1,57.7z
		 M57.7,72.8l-5-2.7l9.6-0.2L57.7,72.8z"/>
	<path class="st0" d="M39.4,31L45,35l-2.1,6.6c-0.2,0.5,0,1.1,0.4,1.4c0.4,0.3,1,0.3,1.5,0l5.6-4.1L56,43c0.2,0.2,0.5,0.2,0.7,0.2
		c0.3,0,0.5-0.1,0.7-0.2c0.4-0.3,0.6-0.9,0.5-1.4L55.8,35l5.6-4.1c0.4-0.3,0.6-0.9,0.5-1.4c-0.2-0.5-0.6-0.9-1.2-0.9h-6.9l-2.1-6.6
		c-0.2-0.5-0.6-0.8-1.2-0.8c-0.5,0-1,0.4-1.2,0.8l-2.1,6.6h-6.9c-0.5,0-1,0.4-1.2,0.9C38.8,30.1,39,30.6,39.4,31z M48,31.2
		c0.5,0,1-0.4,1.2-0.9l1.2-3.8l1.2,3.8c0.2,0.5,0.6,0.9,1.2,0.9h4l-3.3,2.4c-0.4,0.3-0.6,0.9-0.5,1.4l1.3,3.8l-3.3-2.4
		c-0.2-0.1-0.5-0.2-0.7-0.2c-0.3,0-0.5,0.1-0.7,0.2l-3.3,2.4l1.3-3.8c0.2-0.5,0-1.1-0.5-1.4l-3.3-2.4H48z"/>
	<path class="st0" d="M34.5,42.8l2.4,5.5c0.2,0.4,0.5,0.7,0.9,0.7l5.9,1l5.1,3c0.2,0.1,0.4,0.2,0.6,0.2c0.2,0,0.4,0,0.6-0.1l5.3-2.7
		l5.9-0.6c0.4,0,0.8-0.3,1-0.7l2.7-5.3l4.5-3.9c0.3-0.3,0.5-0.7,0.4-1.1L68.7,33l1.3-5.8c0.1-0.4,0-0.8-0.3-1.1l-4.2-4.2l-2.3-5.4
		c-0.2-0.4-0.5-0.7-0.9-0.7l-5.8-1l-5.1-3c-0.4-0.2-0.8-0.2-1.2,0l-5.3,2.7l-5.9,0.5c-0.4,0-0.8,0.3-1,0.7l-2.7,5.3l-4.4,3.9
		c-0.3,0.3-0.5,0.7-0.4,1.1l0.9,5.9L30,37.5c-0.1,0.4,0,0.9,0.3,1.2L34.5,42.8z M32.9,26.1l4.1-3.6c0.1-0.1,0.2-0.2,0.3-0.4l2.5-4.9
		l5.5-0.5c0.2,0,0.3-0.1,0.4-0.1l4.9-2.5l4.7,2.8c0.1,0.1,0.3,0.1,0.4,0.2l5.4,0.9l2.2,5c0.1,0.2,0.1,0.3,0.3,0.4l3.9,3.9l-1.2,5.4
		c0,0.2,0,0.3,0,0.5l0.8,5.4L63,42.2c-0.1,0.1-0.2,0.2-0.3,0.4l-2.5,4.9l-5.4,0.5c-0.2,0-0.3,0.1-0.4,0.1l-4.9,2.5l-4.7-2.8
		c-0.1-0.1-0.3-0.1-0.4-0.2l-5.4-0.9l-2.2-5c-0.1-0.1-0.1-0.3-0.3-0.4l-3.9-3.9l1.2-5.3c0-0.2,0-0.3,0-0.5L32.9,26.1z"/>
</g>
</svg>
