<svg xmlns="http://www.w3.org/2000/svg" width="110" height="101" viewBox="0 0 110 101">
  <g id="Group_5107" data-name="Group 5107" transform="translate(-285 -2588.022)">
    <path id="big-icon-113-millennium" d="M110.1,40.858c-.275-2.757-.55-7.444-.55-7.444H93.05v.138a21.065,21.065,0,0,1-1.787,7.582L71.188,92.275,48.5,38.928c-7.013-16.4-16.913-23.021-24.75-24.951A57.216,57.216,0,0,0,10,13.564a26.283,26.283,0,0,1,11.962,3.584c5.913,3.86,9.625,12.958,7.975,25.088L22.65,95.584c-.963,6.479-2.887,17.231-2.887,17.231H30.075s.687-8.271,1.65-15.577L38.6,45.269l22.962,54.45A29.693,29.693,0,0,0,72.15,114.331l26.95-69.2,6.875,58.172c.412,4.135.688,9.374.688,9.374H120s-1.238-7.03-1.925-12.682Z" transform="translate(275 2574.691)" fill="#fff"/>
  </g>
</svg>
