<?xml version="1.0" encoding="UTF-8"?>
<svg width="173px" height="58px" viewBox="0 0 173 58" version="1.1" xmlns="http://www.w3.org/2000/svg" xmlns:xlink="http://www.w3.org/1999/xlink">
    <!-- Generator: Sketch 59.1 (86144) - https://sketch.com -->
    <title>millenniumbim</title>
    <desc>Created with Sketch.</desc>
    <g id="millenniumbim" stroke="none" stroke-width="1" fill="none" fill-rule="evenodd">
        <g id="Millennium-bim-SVG---Rubine-Red" transform="translate(0.000000, 8.000000)">
            <rect id="XMLID_24_" x="0.096432553" y="0.324545455" width="172.884281" height="41.5609091"></rect>
            <g id="XMLID_21_" transform="translate(0.000000, 0.190909)">
                <g id="XMLID_22_-link" fill="#D01C60">
                    <rect id="XMLID_22_" x="0.096432553" y="0.133636364" width="172.884281" height="41.5609091"></rect>
                </g>
                <rect id="XMLID_23_" fill="#FFFFFF" x="0" y="25.9636364" width="173" height="1.16454545"></rect>
            </g>
            <path d="M116.201226,27.2427273 L116.18194,35.6427273 C116.529097,35.8336364 116.895541,35.9290909 117.319844,35.9290909 C118.843478,35.9290909 119.807804,34.9554545 119.807804,33.4281818 C119.807804,32.0345455 118.99777,31.0990909 117.821293,31.0990909 C117.474136,31.0990909 117.069119,31.1945455 116.606243,31.3663636 L117.319844,30.1254545 C117.589855,30.0872727 117.84058,30.0490909 118.072018,30.0490909 C119.962096,30.0490909 121.196433,31.3472727 121.196433,33.2945455 C121.196433,35.4709091 119.653512,36.9218182 117.107692,36.9218182 C116.548384,36.9218182 115.815496,36.8454545 114.90903,36.6736364 L114.90903,27.2236364 L116.201226,27.2427273 Z" id="XMLID_20_" fill="#FFFFFF"></path>
            <polygon id="XMLID_19_" fill="#FFFFFF" points="122.604348 30.2590909 122.604348 36.7309091 123.896544 36.7309091 123.896544 30.2590909"></polygon>
            <path d="M125.902341,30.2590909 L125.902341,36.75 L127.194537,36.75 L127.194537,33.0272727 C127.194537,31.6718182 127.715273,31.0227273 128.795318,31.0227273 C129.682497,31.0227273 130.415385,31.7672727 130.415385,33.2563636 L130.415385,36.7690909 L131.707581,36.7690909 L131.707581,33.1609091 C131.707581,31.8436364 132.074025,31.0418182 133.346934,31.0418182 C134.484838,31.0418182 134.947715,31.9581818 134.947715,33.39 L134.947715,36.7690909 L136.239911,36.7690909 L136.239911,33.0272727 C136.239911,31.2327273 135.719175,30.0872727 133.694091,30.0872727 C132.633333,30.0872727 131.977592,30.5454545 131.418283,31.3090909 C130.897547,30.4690909 130.203233,30.0872727 129.200334,30.0872727 C128.255295,30.0872727 127.695987,30.4309091 127.194537,31.1945455 L127.194537,30.2590909 L125.902341,30.2590909 Z" id="XMLID_18_" fill="#FFFFFF"></path>
            <path d="M122.37291,28.6554545 C122.37291,28.1781818 122.75864,27.7772727 123.260089,27.7772727 C123.742252,27.7772727 124.147269,28.1781818 124.147269,28.6554545 C124.147269,29.1327273 123.761538,29.5336364 123.260089,29.5336364 C122.777926,29.5145455 122.37291,29.1327273 122.37291,28.6554545 Z" id="XMLID_17_" fill="#FFFFFF"></path>
            <path d="M16.47068,0.133636364 C16.9528428,0.133636364 18.3607581,0.229090909 19.3829431,0.992727273 C20.7908584,1.90909091 21.6780379,4.04727273 21.2730212,6.93 L19.5565217,19.4918182 C19.3250836,21.0381818 18.8622074,23.5581818 18.8622074,23.5581818 L21.3308807,23.5581818 C21.3308807,23.5581818 21.4851728,21.6109091 21.7166109,19.8736364 L23.3559643,7.61727273 L28.8333333,20.4654545 C29.5276477,22.0690909 29.9326644,22.8327273 31.3598662,23.9209091 L37.8208473,7.57909091 L39.4602007,21.3245455 C39.5566332,22.2981818 39.6337793,23.5390909 39.6337793,23.5390909 L42.83534,23.5390909 C42.83534,23.5390909 42.5653289,21.8781818 42.3724638,20.5418182 L40.4630992,6.54818182 C40.4052397,5.89909091 40.3280936,4.77272727 40.3280936,4.77272727 L36.374359,4.77272727 L36.374359,4.81090909 C36.374359,5.40272727 36.1622074,5.97545455 35.9500557,6.58636364 L31.1670011,18.6709091 L25.7474916,6.10909091 C24.0695652,2.25272727 21.6973244,0.668181818 19.8072464,0.229090909 C19.7301003,0.21 19.6143813,0.190909091 19.4022297,0.133636364 L16.47068,0.133636364 L16.47068,0.133636364 Z" id="XMLID_16_" fill="#FFFFFF"></path>
            <path d="M49.0841695,6.75818182 C49.0841695,5.80363636 48.3512821,4.98272727 47.406243,4.98272727 C46.4804905,4.98272727 45.593311,5.67 45.593311,6.68181818 C45.593311,7.75090909 46.384058,8.57181818 47.406243,8.57181818 C48.3512821,8.57181818 49.0841695,7.71272727 49.0841695,6.75818182 Z" id="XMLID_15_" fill="#FFFFFF"></path>
            <polygon id="XMLID_14_" fill="#FFFFFF" points="46.0561873 10.29 46.0369008 23.5009091 48.6020067 23.5009091 48.6020067 10.29"></polygon>
            <polygon id="XMLID_13_" fill="#FFFFFF" points="52.72932 4.58181818 52.767893 23.5009091 55.4294314 23.5009091 55.4294314 4.58181818"></polygon>
            <polygon id="XMLID_12_" fill="#FFFFFF" points="59.3253066 4.56272727 59.3253066 23.4818182 62.0254181 23.4818182 61.986845 4.56272727"></polygon>
            <path d="M68.0620959,14.6427273 C68.4092531,12.8290909 69.8557414,11.6836364 71.8036789,11.6836364 C73.8866221,11.6836364 75.2366778,12.6381818 75.545262,14.6427273 L68.0620959,14.6427273 Z M78.6118172,16.3036364 C78.7275362,12.6 76.0274247,9.77454545 72.0736901,9.77454545 C67.7535117,9.77454545 64.8219621,12.6763636 64.8219621,16.6663636 C64.8219621,20.6563636 68.216388,23.73 73.1537347,23.73 C74.5230769,23.73 75.9117057,23.52 77.1653289,23.0045455 L78.6118172,20.3127273 L78.5346711,20.3127273 C77.2039019,21.3436364 75.506689,21.84 73.770903,21.84 C70.4921962,21.84 68.0235229,19.7972727 67.9656633,16.2845455 L78.6118172,16.2845455 L78.6118172,16.3036364 Z" id="XMLID_9_" fill="#FFFFFF"></path>
            <path d="M115.024749,6.77727273 C115.024749,5.82272727 114.291862,5.00181818 113.346823,5.00181818 C112.42107,5.00181818 111.533891,5.68909091 111.533891,6.70090909 C111.533891,7.77 112.324638,8.59090909 113.346823,8.59090909 C114.291862,8.57181818 115.024749,7.71272727 115.024749,6.77727273 Z" id="XMLID_8_" fill="#FFFFFF"></path>
            <polygon id="XMLID_7_" fill="#FFFFFF" points="111.996767 10.3090909 111.996767 23.52 114.542586 23.52 114.561873 10.3090909"></polygon>
            <path d="M81.1962096,10.2709091 L81.1962096,23.5009091 L83.8770346,23.5009091 L83.857748,15.2536364 C83.857748,13.5545455 84.3013378,11.7981818 86.9435897,11.7981818 C89.5858417,11.7981818 90.4537347,13.3827273 90.4537347,16.4563636 L90.4537347,23.5009091 L93.0959866,23.5009091 L93.0959866,16.17 C93.0959866,14.8145455 93.1924192,13.0390909 92.3630992,11.8936364 C91.4373467,10.5381818 89.5858417,9.90818182 87.9464883,9.90818182 C86.0564103,9.90818182 84.8606466,10.7481818 83.857748,12.1227273 L83.857748,10.2518182 L81.1962096,10.2709091 Z" id="XMLID_6_" fill="#FFFFFF"></path>
            <path d="M127.348829,10.2327273 L127.348829,17.8881818 C127.348829,20.1027273 125.960201,21.6490909 124.03155,21.6490909 C121.505017,21.6490909 120.752843,20.0072727 120.752843,17.3727273 L120.752843,10.2518182 L118.091304,10.2518182 L118.110591,17.8690909 C118.110591,21.9163636 119.730658,23.8445455 123.163657,23.8445455 C125.18874,23.8445455 126.307358,23.1763636 127.348829,21.6109091 L127.348829,23.4818182 L129.991081,23.4818182 L129.991081,10.2709091 L127.348829,10.2327273 Z" id="XMLID_5_" fill="#FFFFFF"></path>
            <path d="M96.3746934,10.2518182 L96.3746934,23.4818182 L99.0555184,23.4818182 L99.0362319,15.2345455 C99.0362319,13.5354545 99.4798216,11.7790909 102.122074,11.7790909 C104.764326,11.7790909 105.632219,13.3636364 105.632219,16.4372727 L105.632219,23.4818182 L108.293757,23.4818182 L108.27447,16.1509091 C108.27447,14.7954545 108.370903,13.02 107.541583,11.8745455 C106.615831,10.5190909 104.764326,9.88909091 103.124972,9.88909091 C101.234894,9.88909091 100.058417,10.7290909 99.0362319,12.1036364 L99.0362319,10.2518182 L96.3746934,10.2518182 Z" id="XMLID_4_" fill="#FFFFFF"></path>
            <path d="M133.732664,10.2709091 L133.732664,23.5009091 L136.394203,23.5009091 L136.394203,15.9218182 C136.394203,13.1536364 137.474247,11.8172727 139.67291,11.8172727 C141.466555,11.8172727 142.99019,13.3445455 142.99019,16.3609091 L142.99019,23.52 L145.613155,23.52 L145.613155,16.17 C145.613155,13.4781818 146.346042,11.8363636 148.949721,11.8363636 C151.264103,11.8363636 152.209142,13.7072727 152.209142,16.6281818 L152.209142,23.52 L154.851394,23.52 L154.851394,15.9027273 C154.851394,12.2563636 153.771349,9.92727273 149.663322,9.92727273 C147.52252,9.92727273 146.153177,10.8818182 145.015273,12.4281818 C143.935229,10.7290909 142.5466,9.92727273 140.482943,9.92727273 C138.535006,9.92727273 137.416388,10.6527273 136.394203,12.1990909 L136.394203,10.3090909 L133.732664,10.3090909 L133.732664,10.2709091 Z" id="XMLID_3_" fill="#FFFFFF"></path>
        </g>
    </g>
</svg>