<?xml version="1.0" encoding="UTF-8"?>
<svg width="173px" height="58px" viewBox="0 0 173 58" version="1.1" xmlns="http://www.w3.org/2000/svg" xmlns:xlink="http://www.w3.org/1999/xlink">
    <!-- Generator: Sketch 59.1 (86144) - https://sketch.com -->
    <title>millenniumbim-rubine</title>
    <desc>Created with Sketch.</desc>
    <g id="millenniumbim-rubine" stroke="none" stroke-width="1" fill="none" fill-rule="evenodd">
        <g id="Millennium-bim-SVG---Rubine-Red---Sem-background" transform="translate(0.000000, 10.000000)">
            <g id="XMLID_90_" transform="translate(0.000000, 27.000000)" fill="#D60057">
                <rect id="XMLID_68_" x="0" y="0" width="173" height="1"></rect>
            </g>
            <g id="XMLID_71_" transform="translate(15.000000, 0.000000)" fill="#D01C60">
                <path d="M100.84492,27.9800995 L100.826203,36.638806 C101.181818,36.8278607 101.537433,36.9412935 101.967914,36.9412935 C103.502674,36.9412935 104.475936,35.9393035 104.475936,34.3512438 C104.475936,32.9144279 103.652406,31.9502488 102.473262,31.9502488 C102.117647,31.9502488 101.724599,32.0447761 101.237968,32.2338308 L101.949198,30.9482587 C102.21123,30.9104478 102.473262,30.8726368 102.697861,30.8726368 C104.606952,30.8726368 105.842246,32.1960199 105.842246,34.2189055 C105.842246,36.4686567 104.28877,37.9621891 101.724599,37.9621891 C101.144385,37.9621891 100.414439,37.8865672 99.5160428,37.7164179 L99.5160428,27.9800995 L100.84492,27.9800995 Z" id="XMLID_66_"></path>
                <polygon id="XMLID_65_" points="107.302139 31.080597 107.302139 37.7731343 108.612299 37.7731343 108.612299 31.080597"></polygon>
                <path d="M110.614973,31.080597 L110.614973,37.7542289 L111.925134,37.7542289 L111.925134,33.9164179 C111.925134,32.5174129 112.449198,31.8368159 113.553476,31.8368159 C114.451872,31.8368159 115.200535,32.6119403 115.200535,34.1243781 L115.200535,37.7353234 L116.510695,37.7353234 L116.510695,34.0109453 C116.510695,32.6497512 116.86631,31.8179104 118.157754,31.8179104 C119.299465,31.8179104 119.76738,32.7631841 119.76738,34.2378109 L119.76738,37.7164179 L121.07754,37.7164179 L121.07754,33.878607 C121.07754,32.0258706 120.553476,30.8537313 118.513369,30.8537313 C117.446524,30.8537313 116.772727,31.3263682 116.21123,32.120398 C115.687166,31.2696517 114.994652,30.8537313 113.965241,30.8537313 C113.010695,30.8537313 112.449198,31.2129353 111.94385,32.0069652 L111.94385,31.0427861 L110.614973,31.080597 Z" id="XMLID_64_"></path>
                <path d="M107.058824,29.4358209 C107.058824,28.9442786 107.451872,28.5283582 107.957219,28.5283582 C108.44385,28.5283582 108.836898,28.9253731 108.836898,29.4358209 C108.836898,29.9273632 108.44385,30.3432836 107.957219,30.3432836 C107.470588,30.3243781 107.058824,29.9273632 107.058824,29.4358209 Z" id="XMLID_63_"></path>
                <path d="M0.14973262,0.0567164179 C0.636363636,0.0567164179 2.05882353,0.151243781 3.08823529,0.945273632 C4.51069519,1.89054726 5.39037433,4.08358209 4.9973262,7.05174129 L3.25668449,20.00199 C3.03208556,21.5900498 2.56417112,24.199005 2.56417112,24.199005 L5.05347594,24.199005 C5.05347594,24.199005 5.20320856,22.1950249 5.44652406,20.4179104 L7.11229947,7.78905473 L12.6336898,21.041791 C13.3262032,22.6865672 13.7379679,23.480597 15.197861,24.5960199 L21.7112299,7.77014925 L23.3770053,21.9303483 C23.4705882,22.9323383 23.5454545,24.2179104 23.5454545,24.2179104 L26.7647059,24.2179104 C26.7647059,24.2179104 26.4839572,22.5164179 26.315508,21.1363184 L24.4064171,6.71144279 C24.3502674,6.03084577 24.2754011,4.89651741 24.2754011,4.89651741 L20.2887701,4.89651741 L20.2887701,4.93432836 C20.2887701,5.55820896 20.0828877,6.14427861 19.8582888,6.74925373 L14.973262,19.1701493 L9.50802139,6.2199005 C7.80481283,2.24975124 5.40909091,0.604975124 3.51871658,0.151243781 C3.44385027,0.132338308 3.31283422,0.113432836 3.10695187,0.0567164179 L0.14973262,0.0567164179 Z" id="XMLID_62_"></path>
                <path d="M33.0721925,6.88159204 C33.0721925,5.89850746 32.342246,5.04776119 31.368984,5.04776119 C30.4331551,5.04776119 29.5347594,5.76616915 29.5347594,6.78706468 C29.5347594,7.88358209 30.3208556,8.73432836 31.368984,8.73432836 C32.342246,8.75323383 33.0721925,7.86467662 33.0721925,6.88159204 Z" id="XMLID_61_"></path>
                <polygon id="XMLID_60_" points="30.0213904 10.5114428 30.0026738 24.1233831 32.6042781 24.1233831 32.6042781 10.5114428"></polygon>
                <polygon id="XMLID_59_" points="36.7593583 4.65074627 36.7780749 24.1233831 39.4919786 24.1233831 39.4919786 4.6318408"></polygon>
                <polygon id="XMLID_58_" points="43.4224599 4.61293532 43.4224599 24.1044776 46.1363636 24.1044776 46.0989305 4.61293532"></polygon>
                <path d="M52.2379679,14.9920398 C52.5935829,13.120398 54.0534759,11.9482587 56.0187166,11.9482587 C58.1336898,11.9482587 59.4812834,12.9313433 59.7994652,14.9920398 L52.2379679,14.9920398 Z M62.868984,16.7124378 C62.9812834,12.8935323 60.2673797,10.000995 56.2807487,10.000995 C51.9197861,10.000995 48.9438503,12.9880597 48.9438503,17.1094527 C48.9438503,21.2308458 52.368984,24.3880597 57.3663102,24.3880597 C58.7513369,24.3880597 60.1550802,24.1800995 61.4090909,23.6507463 L62.868984,20.8716418 L62.7754011,20.8716418 C61.4278075,21.9303483 59.7245989,22.440796 57.9652406,22.440796 C54.6524064,22.440796 52.1631016,20.3422886 52.1069519,16.7313433 L62.868984,16.7313433 L62.868984,16.7124378 Z" id="XMLID_78_"></path>
                <path d="M99.6470588,6.90049751 C99.6470588,5.91741294 98.9171123,5.06666667 97.9438503,5.06666667 C97.0080214,5.06666667 96.1096257,5.78507463 96.1096257,6.80597015 C96.1096257,7.90248756 96.8957219,8.75323383 97.9438503,8.75323383 C98.8983957,8.75323383 99.6470588,7.86467662 99.6470588,6.90049751 Z" id="XMLID_55_"></path>
                <polygon id="XMLID_54_" points="96.5962567 10.5303483 96.5775401 24.1422886 99.1604278 24.1422886 99.1791444 10.5303483"></polygon>
                <path d="M65.4893048,10.4925373 L65.4893048,24.1233831 L68.2032086,24.1233831 L68.184492,15.6348259 C68.184492,13.8955224 68.6336898,12.080597 71.2914439,12.080597 C73.9491979,12.080597 74.8475936,13.7064677 74.8475936,16.8825871 L74.8475936,24.1422886 L77.5240642,24.1422886 L77.5240642,16.599005 C77.5240642,15.2 77.6176471,13.3661692 76.7941176,12.1940299 C75.8582888,10.7950249 73.986631,10.1522388 72.3395722,10.1522388 C70.4304813,10.1522388 69.2326203,11.0029851 68.2032086,12.439801 L68.2032086,10.5114428 L65.4893048,10.4925373 Z" id="XMLID_53_"></path>
                <path d="M112.074866,10.4736318 L112.074866,18.3572139 C112.074866,20.6447761 110.671123,22.2328358 108.724599,22.2328358 C106.179144,22.2328358 105.411765,20.5502488 105.411765,17.8278607 L105.411765,10.4925373 L102.716578,10.4925373 L102.735294,18.3383085 C102.735294,22.5164179 104.382353,24.5014925 107.84492,24.5014925 C109.903743,24.5014925 111.008021,23.8208955 112.05615,22.1950249 L112.05615,24.1233831 L114.73262,24.1233831 L114.73262,10.5114428 L112.074866,10.4736318 Z" id="XMLID_52_"></path>
                <path d="M80.8181818,10.4736318 L80.8181818,24.1044776 L83.5320856,24.1044776 L83.513369,15.5970149 C83.513369,13.8577114 83.9625668,12.0427861 86.6203209,12.0427861 C89.2967914,12.0427861 90.1764706,13.6686567 90.1764706,16.8447761 L90.1764706,24.1044776 L92.8716578,24.1044776 L92.8529412,16.561194 C92.8529412,15.1621891 92.9465241,13.3283582 92.1229947,12.1562189 C91.1871658,10.7572139 89.315508,10.1144279 87.6684492,10.1144279 C85.7593583,10.1144279 84.5614973,10.9651741 83.5320856,12.40199 L83.5320856,10.4925373 L80.8181818,10.4925373 L80.8181818,10.4736318 Z" id="XMLID_51_"></path>
                <path d="M118.532086,10.5114428 L118.532086,24.1233831 L121.208556,24.1233831 L121.208556,16.3154229 C121.208556,13.479602 122.294118,12.080597 124.52139,12.080597 C126.336898,12.080597 127.871658,13.6497512 127.871658,16.7502488 L127.871658,24.1233831 L130.529412,24.1233831 L130.529412,16.5422886 C130.529412,13.7631841 131.259358,12.080597 133.898396,12.080597 C136.237968,12.080597 137.173797,14.0089552 137.173797,17.0149254 L137.173797,24.1233831 L139.850267,24.1233831 L139.850267,16.2776119 C139.850267,12.5154229 138.764706,10.1144279 134.609626,10.1144279 C132.438503,10.1144279 131.053476,11.0975124 129.911765,12.6855721 C128.826203,10.9462687 127.42246,10.1144279 125.34492,10.1144279 C123.379679,10.1144279 122.237968,10.8517413 121.208556,12.4587065 L121.208556,10.5114428 L118.532086,10.5114428 L118.532086,10.5114428 Z" id="XMLID_50_"></path>
            </g>
        </g>
    </g>
</svg>