<svg xmlns="http://www.w3.org/2000/svg" width="138.567" height="46" viewBox="0 0 138.567 46"><defs><style>.a{fill:none;stroke:#fff;}.b,.c{fill:#fff;}.b{stroke:#707070;}</style></defs><g transform="translate(-906.5 -292.406)"><path class="a" d="M6.082,0h125.4a6.081,6.081,0,0,1,6.081,6.081V38.919A6.081,6.081,0,0,1,131.486,45H6.081A6.081,6.081,0,0,1,0,38.92V6.082A6.082,6.082,0,0,1,6.082,0Z" transform="translate(907 292.906)"/><path class="b" d="M61.642,69.548a22.277,22.277,0,0,1-2.014,3.761C58.319,75.3,56.475,77.782,54.19,77.8c-2.03.019-2.552-1.322-5.307-1.306s-3.331,1.33-5.362,1.311c-2.285-.021-4.032-2.261-5.34-4.252-3.659-5.568-4.041-12.1-1.785-15.579a8.1,8.1,0,0,1,6.511-3.915c2.422,0,3.944,1.328,5.946,1.328,1.942,0,3.126-1.33,5.926-1.33A7.9,7.9,0,0,1,60.736,57.2,6.816,6.816,0,0,0,61.642,69.548Z" transform="translate(881.231 253.102)"/><path class="b" d="M88.42,31.564a6.8,6.8,0,0,0,1.51-5.034,7.342,7.342,0,0,0-4.741,2.55A6.309,6.309,0,0,0,83.64,33.99,6.2,6.2,0,0,0,88.42,31.564Z" transform="translate(845.468 273.372)"/><path class="c" d="M163.682,68.6l-5.241,15.426h2.4l1.565-4.737h5.075l1.608,4.737h2.466L166.291,68.6Zm1.244,2.536c.177.688.369,1.4.613,2.176l1.412,4.09h-4.02l1.393-4.117C164.536,72.614,164.738,71.892,164.925,71.131Z" transform="translate(790.337 242.399)"/><path class="c" d="M217.309,83.761a4.367,4.367,0,0,0-3.711,1.78l-.093-1.534H211.37l.013.2c.063.956.089,2.008.089,3.519V99.612h2.334V94.063A4.1,4.1,0,0,0,217,95.434a4.812,4.812,0,0,0,3.537-1.5,6.378,6.378,0,0,0,1.562-4.489,6.206,6.206,0,0,0-1.356-4.1A4.44,4.44,0,0,0,217.309,83.761Zm-.581,1.932c2.081,0,3.012,1.928,3.012,3.837,0,2.463-1.188,3.994-3.1,3.994a2.829,2.829,0,0,1-2.75-2.166,2.975,2.975,0,0,1-.083-.755V88.726a3.515,3.515,0,0,1,.074-.576c.012-.064.024-.128.033-.19A2.956,2.956,0,0,1,216.728,85.693Z" transform="translate(751.365 231.232)"/><path class="c" d="M262.892,83.761a4.369,4.369,0,0,0-3.711,1.78l-.093-1.534h-2.134l.012.2c.063.957.09,2.008.09,3.519V99.612h2.334V94.063a4.1,4.1,0,0,0,3.191,1.371,4.818,4.818,0,0,0,3.538-1.5,6.386,6.386,0,0,0,1.561-4.489,6.207,6.207,0,0,0-1.357-4.1A4.439,4.439,0,0,0,262.892,83.761Zm-.58,1.932c2.08,0,3.011,1.928,3.011,3.837,0,2.463-1.189,3.994-3.1,3.994a2.829,2.829,0,0,1-2.75-2.166,2.98,2.98,0,0,1-.082-.755V88.726a3.451,3.451,0,0,1,.074-.578c.012-.063.023-.126.034-.187a2.953,2.953,0,0,1,2.812-2.267Z" transform="translate(717.8 231.232)"/><path class="c" d="M321.063,74.445c-2.178-.844-2.876-1.507-2.876-2.733,0-1.032.82-2.073,2.653-2.073a5.3,5.3,0,0,1,2.74.688l.2.122.659-1.948-.13-.076a6.764,6.764,0,0,0-3.4-.763c-2.976,0-5.055,1.757-5.055,4.272,0,2.028,1.3,3.446,4.1,4.462,1.981.74,2.718,1.5,2.718,2.8,0,1.472-1.137,2.385-2.967,2.385a6.387,6.387,0,0,1-3.364-.954l-.2-.13-.627,1.993.115.076a8,8,0,0,0,3.944,1.014c4.011,0,5.434-2.446,5.434-4.541C325,76.881,323.859,75.549,321.063,74.445Z" transform="translate(674.687 243.085)"/><path class="c" d="M356.366,74.613l-2.289.719v1.939H352.4v1.865h1.676V84.85a4.367,4.367,0,0,0,.808,2.961,2.993,2.993,0,0,0,2.258.887,5.5,5.5,0,0,0,1.8-.279l.132-.046-.112-1.869-.224.069a3.517,3.517,0,0,1-1.086.126c-.9,0-1.291-.572-1.291-1.916V79.136h2.816V77.271h-2.815Z" transform="translate(647.522 237.968)"/><path class="c" d="M384.567,83.755c-3.266,0-5.546,2.438-5.546,5.926,0,3.384,2.207,5.748,5.367,5.748h.022c2.672,0,5.546-1.861,5.546-5.948a5.9,5.9,0,0,0-1.487-4.128A5.2,5.2,0,0,0,384.567,83.755ZM384.5,85.6c2.1,0,3.056,2.047,3.056,3.95,0,2.34-1.3,4.038-3.1,4.038h-.023c-1.77,0-3.055-1.67-3.055-3.971,0-2,.966-4.017,3.123-4.017Z" transform="translate(627.921 231.238)"/><path class="c" d="M431.379,83.869l-.14-.036a2.245,2.245,0,0,0-.58-.073,3.329,3.329,0,0,0-2.927,1.879l-.069-1.633H425.57l.013.2c.062.923.088,1.961.088,3.361l-.022,7.625h2.334V89.24a6.011,6.011,0,0,1,.064-.9,2.58,2.58,0,0,1,2.455-2.352,5.959,5.959,0,0,1,.626.039l.25.026Z" transform="translate(593.646 231.232)"/><path class="c" d="M452.763,83.677c-3.107,0-5.277,2.483-5.277,6.038,0,3.423,2.159,5.635,5.5,5.635a8.952,8.952,0,0,0,3.7-.709l.141-.063-.448-1.74-.195.079a7.229,7.229,0,0,1-2.924.523,3.245,3.245,0,0,1-3.5-3.384l7.533.023.03-.149a5.2,5.2,0,0,0,.07-.974C457.394,86.52,456.182,83.677,452.763,83.677Zm-.156,1.776a2.3,2.3,0,0,1,1.714.653,3.322,3.322,0,0,1,.8,2.173H449.8a2.98,2.98,0,0,1,2.806-2.826Z" transform="translate(577.509 231.293)"/><path class="c" d="M158.441,28.207a17.008,17.008,0,0,1,2.239-.151,5,5,0,0,1,3.286.9,3.194,3.194,0,0,1,1.156,2.632,3.7,3.7,0,0,1-1.168,2.838,5.415,5.415,0,0,1-3.6,1.052,16.239,16.239,0,0,1-1.914-.087Zm1.059,6.467a7.556,7.556,0,0,0,1.059.043c2.239.011,3.454-1.127,3.454-3.1.012-1.744-1.071-2.817-3.286-2.817a6.651,6.651,0,0,0-1.228.1Z" transform="translate(790.337 272.248)"/><path class="c" d="M190.215,41.094a2.632,2.632,0,0,1-2.792-2.7,2.7,2.7,0,0,1,2.888-2.784,2.611,2.611,0,0,1,2.8,2.686,2.714,2.714,0,0,1-2.888,2.8Zm.036-.715a1.866,1.866,0,0,0,1.77-2.048,1.78,1.78,0,1,0-3.527.033,1.836,1.836,0,0,0,1.745,2.015Z" transform="translate(768.997 266.684)"/><path class="c" d="M212.343,36.065l.782,2.654c.156.585.313,1.137.422,1.679h.036c.132-.531.325-1.094.518-1.668l.951-2.665h.891l.9,2.621c.216.618.385,1.181.517,1.712h.036a14.5,14.5,0,0,1,.445-1.7l.83-2.632h1.048l-1.878,5.243h-.963l-.891-2.5a17.2,17.2,0,0,1-.518-1.733h-.024a14.431,14.431,0,0,1-.53,1.744l-.938,2.491h-.963l-1.758-5.243Z" transform="translate(751.446 266.351)"/><path class="c" d="M247.236,37.145c0-.554-.012-.986-.049-1.419h.939l.06.856h.024a2.207,2.207,0,0,1,1.925-.976,1.994,1.994,0,0,1,2.058,2.232v3.131h-1.059V37.947c0-.844-.35-1.559-1.348-1.559a1.511,1.511,0,0,0-1.42.976,1.287,1.287,0,0,0-.072.444v3.164h-1.059Z" transform="translate(724.992 266.69)"/><path class="c" d="M272.7,26.782h1.06v7.691H272.7Z" transform="translate(706.206 273.186)"/><path class="c" d="M284.582,41.094a2.632,2.632,0,0,1-2.792-2.7,2.7,2.7,0,0,1,2.889-2.784,2.611,2.611,0,0,1,2.8,2.686,2.715,2.715,0,0,1-2.889,2.8Zm.036-.715a1.866,1.866,0,0,0,1.77-2.048,1.78,1.78,0,1,0-3.527.033,1.836,1.836,0,0,0,1.746,2.015Z" transform="translate(699.513 266.684)"/><path class="c" d="M311.277,39.724a7.919,7.919,0,0,0,.084,1.256h-.951l-.1-.659h-.036a2.239,2.239,0,0,1-1.781.78,1.588,1.588,0,0,1-1.781-1.506c0-1.267,1.251-1.96,3.5-1.95v-.108c0-.433-.132-1.224-1.324-1.213a3.038,3.038,0,0,0-1.529.389l-.241-.639a4.1,4.1,0,0,1,1.925-.455,1.949,1.949,0,0,1,2.226,2.145Zm-1.035-1.42c-1.156-.022-2.468.162-2.468,1.181a.885.885,0,0,0,.987.91,1.468,1.468,0,0,0,1.432-.878.872.872,0,0,0,.049-.3Z" transform="translate(681.16 266.678)"/><path class="c" d="M334.3,26.782v6.337c0,.466.013,1,.049,1.354H333.4l-.048-.91h-.024a2.179,2.179,0,0,1-1.974,1.028,2.5,2.5,0,0,1-2.505-2.665,2.614,2.614,0,0,1,2.612-2.816,2,2,0,0,1,1.758.791h.024v-3.12Zm-1.059,4.582a1.585,1.585,0,0,0-.049-.412,1.531,1.531,0,0,0-1.529-1.094,1.794,1.794,0,0,0-1.746,2.015,1.739,1.739,0,0,0,1.721,1.949,1.576,1.576,0,0,0,1.553-1.137,1.479,1.479,0,0,0,.048-.412Z" transform="translate(664.861 273.186)"/><path class="c" d="M367.071,41.094a2.632,2.632,0,0,1-2.792-2.7,2.7,2.7,0,0,1,2.889-2.784,2.611,2.611,0,0,1,2.8,2.686,2.715,2.715,0,0,1-2.888,2.8Zm.037-.715a1.865,1.865,0,0,0,1.769-2.048,1.78,1.78,0,1,0-3.526.033,1.835,1.835,0,0,0,1.745,2.015Z" transform="translate(638.775 266.684)"/><path class="c" d="M390.806,37.145c0-.554-.012-.986-.049-1.419h.939l.061.856h.024a2.206,2.206,0,0,1,1.925-.976,1.994,1.994,0,0,1,2.059,2.232v3.131h-1.059V37.947c0-.844-.349-1.559-1.348-1.559a1.512,1.512,0,0,0-1.42.976,1.294,1.294,0,0,0-.072.444v3.164h-1.059Z" transform="translate(619.279 266.69)"/><path class="c" d="M425.38,31.3v1.256H426.9v.726H425.38V36.11c0,.65.2,1.018.795,1.018a2.191,2.191,0,0,0,.614-.065l.048.726a3.182,3.182,0,0,1-.939.13,1.6,1.6,0,0,1-1.144-.4,1.9,1.9,0,0,1-.409-1.376v-2.86h-.9v-.726h.9v-.964Z" transform="translate(595.213 269.859)"/><path class="c" d="M441.064,26.782h1.059v3.272h.025a1.8,1.8,0,0,1,.759-.672,2.236,2.236,0,0,1,1.083-.271,1.993,1.993,0,0,1,2.034,2.241v3.12h-1.059V31.462c0-.856-.349-1.56-1.348-1.56a1.522,1.522,0,0,0-1.42.953,1.047,1.047,0,0,0-.073.455v3.164h-1.059Z" transform="translate(582.238 273.186)"/><path class="c" d="M465.822,38.486a1.775,1.775,0,0,0,1.986,1.819,4.416,4.416,0,0,0,1.614-.26l.192.672a5.208,5.208,0,0,1-1.951.336,2.583,2.583,0,0,1-2.865-2.643,2.669,2.669,0,0,1,2.744-2.838,2.3,2.3,0,0,1,2.4,2.47,2.207,2.207,0,0,1-.036.455Zm3.094-.682a1.407,1.407,0,0,0-1.457-1.549,1.649,1.649,0,0,0-1.625,1.549Z" transform="translate(564.762 266.715)"/></g></svg>