<svg xmlns="http://www.w3.org/2000/svg" xmlns:xlink="http://www.w3.org/1999/xlink" width="138.568" height="46" viewBox="0 0 138.568 46"><defs><style>.a,.f{fill:none;}.a{stroke:#fff;}.b,.c,.d,.e,.f{stroke:#707070;}.b{fill:url(#a);}.c{fill:url(#b);}.d{fill:url(#c);}.e{fill:url(#d);}.g{fill:#f9f9f9;}.h{fill:#fbfbfb;}</style><linearGradient id="a" x1="0.5" x2="0.5" y2="1" gradientUnits="objectBoundingBox"><stop offset="0" stop-color="#316199"/><stop offset="0.278" stop-color="#4d839d"/><stop offset="0.764" stop-color="#7abaa3"/><stop offset="1" stop-color="#8bd0a5"/></linearGradient><linearGradient id="b" y1="0.5" x2="1" y2="0.5" gradientUnits="objectBoundingBox"><stop offset="0" stop-color="#5dbc91"/><stop offset="1" stop-color="#daef7e"/></linearGradient><linearGradient id="c" x1="0.5" x2="0.5" y2="1" gradientUnits="objectBoundingBox"><stop offset="0" stop-color="#f91b1c"/><stop offset="0.358" stop-color="#c71e49"/><stop offset="0.79" stop-color="#90227a"/><stop offset="1" stop-color="#7a238d"/></linearGradient><linearGradient id="d" x1="0.5" x2="0.5" y2="1" gradientUnits="objectBoundingBox"><stop offset="0" stop-color="#fa6c61"/><stop offset="0.113" stop-color="#fb775f"/><stop offset="0.711" stop-color="#fdae58"/><stop offset="1" stop-color="#fec455"/></linearGradient></defs><g transform="translate(-1065 -292.18)"><path class="a" d="M137.568,38.919A6.081,6.081,0,0,1,131.488,45H6.081A6.082,6.082,0,0,1,0,38.919V6.081A6.082,6.082,0,0,1,6.081,0H131.488a6.081,6.081,0,0,1,6.08,6.08Z" transform="translate(1065.5 292.68)"/><path class="b" d="M38.365,31.771V62.245L53.732,47.008Z" transform="translate(1037.352 269.454)"/><path class="c" d="M57.859,42.614l-6.2-3.581L38.365,31.359v.111L53.732,46.707Z" transform="translate(1037.352 269.755)"/><path class="d" d="M38.365,103.661v.111L51.656,96.1l6.2-3.581-4.127-4.092Z" transform="translate(1037.352 228.038)"/><path class="e" d="M99.625,73.207,95.5,77.3l4.127,4.092,7.089-4.092Z" transform="translate(995.586 239.163)"/><path class="f" d="M57.862,44.205l-6.2-3.581L39.7,33.716c-.663-.383-1.326-.151-1.326.65V62.512c0,.6.473.861,1.049.527s12.241-7.068,12.241-7.068l6.2-3.581,5.963-3.443c.7-.4.632-.958.042-1.276S57.862,44.205,57.862,44.205Z" transform="translate(1037.349 268.164)"/><path class="g" d="M386.85,85.6a3.833,3.833,0,0,1-1.581-.319,2.977,2.977,0,0,1-1.2-.982h-.1a11.908,11.908,0,0,1,.1,1.472V89.42h-1.342V76.579h1.091L384,77.792h.065a3.122,3.122,0,0,1,1.205-1.051,3.663,3.663,0,0,1,1.576-.323,3.275,3.275,0,0,1,2.721,1.2,6.418,6.418,0,0,1-.016,6.773A3.284,3.284,0,0,1,386.85,85.6Zm-.194-8.046a2.372,2.372,0,0,0-1.964.753,3.889,3.889,0,0,0-.623,2.394V81a4.434,4.434,0,0,0,.623,2.673,2.368,2.368,0,0,0,2,.8,2.078,2.078,0,0,0,1.8-.93,4.413,4.413,0,0,0,.651-2.564,4.246,4.246,0,0,0-.651-2.543A2.142,2.142,0,0,0,386.656,77.558Z" transform="translate(785.61 236.816)"/><path class="g" d="M419.643,75.771H418.3V63.189h1.342Z" transform="translate(759.604 246.486)"/><path class="g" d="M435.357,85.483l-.267-1.261h-.065A3.719,3.719,0,0,1,433.7,85.35a4.022,4.022,0,0,1-1.645.3,2.961,2.961,0,0,1-2.066-.679,2.477,2.477,0,0,1-.748-1.932q0-2.684,4.294-2.814l1.5-.049v-.55a2.245,2.245,0,0,0-.449-1.54,1.848,1.848,0,0,0-1.435-.5,5.846,5.846,0,0,0-2.507.679l-.413-1.028a6.321,6.321,0,0,1,1.436-.558,6.221,6.221,0,0,1,1.565-.2,3.376,3.376,0,0,1,2.349.7,2.935,2.935,0,0,1,.764,2.256v6.049Zm-3.032-.946a2.726,2.726,0,0,0,1.969-.687,2.545,2.545,0,0,0,.716-1.925v-.8l-1.343.056a4.884,4.884,0,0,0-2.308.5,1.5,1.5,0,0,0-.707,1.372,1.38,1.38,0,0,0,.441,1.108A1.829,1.829,0,0,0,432.325,84.537Z" transform="translate(751.608 236.774)"/><path class="g" d="M458.581,77.019h1.439l1.941,5.054a19.311,19.311,0,0,1,.793,2.5h.065q.105-.413.441-1.412t2.2-6.141h1.44l-3.809,10.092a5.021,5.021,0,0,1-1.323,2.123,2.812,2.812,0,0,1-1.856.626,5.427,5.427,0,0,1-1.215-.137V88.647a4.685,4.685,0,0,0,1,.1,2.05,2.05,0,0,0,1.973-1.553l.493-1.261Z" transform="translate(730.157 236.376)"/><path class="g" d="M286.816,78.269a3.019,3.019,0,0,1-.241,5.135,1.3,1.3,0,0,0-.519.909,1.017,1.017,0,0,0,.483.8l.668.518a3.229,3.229,0,0,1,1.556,2.6c0,1.742-1.687,3.5-4.875,3.5-2.69,0-3.985-1.279-3.985-2.651a2.667,2.667,0,0,1,1.427-2.262,7.986,7.986,0,0,1,3.54-.853,1.941,1.941,0,0,1-.556-1.26,1.672,1.672,0,0,1,.185-.724c-.2.019-.408.037-.594.037a2.931,2.931,0,0,1-3.076-2.909,3.335,3.335,0,0,1,1.186-2.484,5.054,5.054,0,0,1,3.319-1.02h3.817l-1.186.667ZM285.5,86.5a2.885,2.885,0,0,0-.426-.019,7.4,7.4,0,0,0-1.947.3,2.082,2.082,0,0,0-1.594,1.91c0,1.318,1.28,2.262,3.263,2.262,1.778,0,2.725-.854,2.725-2,0-.947-.612-1.446-2.021-2.447Zm.538-3.523a1.875,1.875,0,0,0,.462-1.353c0-1.334-.8-3.411-2.335-3.411a1.731,1.731,0,0,0-1.3.612,2.142,2.142,0,0,0-.408,1.372c0,1.242.723,3.3,2.318,3.3a1.9,1.9,0,0,0,1.261-.517Z" transform="translate(860.779 235.949)"/><path class="g" d="M249.947,85.483a4.367,4.367,0,0,1-4.515-4.368,4.586,4.586,0,0,1,4.794-4.5,4.327,4.327,0,0,1,4.423,4.368A4.522,4.522,0,0,1,249.947,85.483Zm2.313-1.5a3.347,3.347,0,0,0,.556-2.055c0-1.629-.777-4.737-3.072-4.737a2.577,2.577,0,0,0-1.665.63,2.8,2.8,0,0,0-.852,2.259c0,1.831.907,4.847,3.147,4.847A2.364,2.364,0,0,0,252.26,83.984Z" transform="translate(885.978 236.67)"/><path class="g" d="M212.651,85.483a4.367,4.367,0,0,1-4.516-4.368,4.586,4.586,0,0,1,4.794-4.5,4.327,4.327,0,0,1,4.422,4.368A4.521,4.521,0,0,1,212.651,85.483Zm2.313-1.5a3.351,3.351,0,0,0,.556-2.055c0-1.629-.778-4.737-3.073-4.737a2.578,2.578,0,0,0-1.665.63,2.8,2.8,0,0,0-.851,2.259c0,1.831.906,4.847,3.147,4.847a2.367,2.367,0,0,0,1.887-.944Z" transform="translate(913.243 236.67)"/><path class="g" d="M168.034,73.807l-2.661.614a19.707,19.707,0,0,1-3.07.315c-5.137,0-7.089-3.777-7.089-6.736,0-3.609,2.772-6.958,7.517-6.958a10.717,10.717,0,0,1,2.846.392,7.257,7.257,0,0,1,2.456,1.154l-1.545,1.47-.651.148.465-.744a5.317,5.317,0,0,0-3.981-1.748,5.138,5.138,0,0,0-5.154,5.489,6.581,6.581,0,0,0,6.586,6.791,5.541,5.541,0,0,0,2.363-.465v-3l-2.809.149,1.488-.8h3.945l-.484.465a.435.435,0,0,0-.186.3c-.019.168-.037.708-.037.894Z" transform="translate(951.93 248.055)"/><path class="g" d="M316.732,72.147c-.614-.056-.743-.167-.743-.894V60.723c0-.04.006-.081.01-.12.075-.651.261-.763.838-1.1h-2.663l-1.395.671H314.2V71.665c0,.371-.073.428-.5.985h3.294l.689-.409C317.366,72.2,317.049,72.184,316.732,72.147Z" transform="translate(836.744 249.179)"/><path class="g" d="M337.3,84.843c-.2.111-.406.242-.608.333a4.307,4.307,0,0,1-1.794.351,3.948,3.948,0,0,1-2.458-.721,4.781,4.781,0,0,1-1.883-3.9,4.188,4.188,0,0,1,4.231-4.268,3.592,3.592,0,0,1,1.9.517,3.059,3.059,0,0,1,1.291,1.829l-4.341,1.756-1.423.111c.461,2.347,2.05,3.712,3.806,3.712a4.774,4.774,0,0,0,2.254-.645Zm-1.736-5.507c.35-.129.535-.24.535-.5a1.833,1.833,0,0,0-1.829-1.589,2.276,2.276,0,0,0-2.125,2.569c0,.314.037.646.056.98Z" transform="translate(823.752 236.655)"/><path class="g" d="M360.753,76.769v1.219H360.6V76.769h-.4v-.126h.955v.126Z" transform="translate(802.078 236.651)"/><path class="g" d="M365.671,77.991V76.76h-.007l-.377,1.231h-.116l-.379-1.231h0v1.231h-.135V76.646h.231l.343,1.087h0l.338-1.087h.234v1.345Z" transform="translate(798.822 236.649)"/><path class="h" d="M159,37.351h-.924a6.124,6.124,0,0,0-.263-1.081h-1.335a5.578,5.578,0,0,0-.272,1.081h-.87q0-.113.675-1.849a14.511,14.511,0,0,0,.675-1.913h1.092a15.929,15.929,0,0,0,.611,1.885A16.532,16.532,0,0,1,159,37.351Zm-1.335-1.632a16.288,16.288,0,0,1-.494-1.612h-.046q0,.113-.511,1.612Z" transform="translate(951.843 268.125)"/><path class="h" d="M174.377,37.349h-.714a7.057,7.057,0,0,0-.795-1.251,6.881,6.881,0,0,1-.948-1.632h-.047a10.184,10.184,0,0,1,.072,1.144q0,.714.04,1.739h-.711q.043-.9.043-1.967,0-1.055-.043-1.794h.858a5.434,5.434,0,0,0,.714,1.222,7.2,7.2,0,0,1,.873,1.54h.043a10.914,10.914,0,0,1-.069-1.157q0-.783-.04-1.607h.722q-.041.717-.04,1.794T174.377,37.349Z" transform="translate(940.189 268.127)"/><path class="h" d="M189.737,35.294a2.131,2.131,0,0,1-.526,1.433,1.837,1.837,0,0,1-1.473.612q-.428,0-1.179-.035.037-.873.038-1.967,0-1.052-.038-1.794h.506q.124,0,.37-.009t.321-.009a1.948,1.948,0,0,1,1.513.52A1.8,1.8,0,0,1,189.737,35.294Zm-.789.124a1.392,1.392,0,0,0-.323-.935,1.227,1.227,0,0,0-.988-.38,3.038,3.038,0,0,0-.341.027q.029.578.029,1.208,0,.691.029,1.37a1.906,1.906,0,0,0,.377.038,1.091,1.091,0,0,0,.92-.386,1.489,1.489,0,0,0,.3-.942Z" transform="translate(929.016 268.171)"/><path class="h" d="M204.455,37.3H203.6a5.684,5.684,0,0,0-.514-1.262.674.674,0,0,0-.578-.24q-.168,0-.321,0,0,.743.027,1.5h-.8q.037-.873.038-1.967,0-1.052-.038-1.794h.5q.087,0,.363-.009t.511-.009q1.326,0,1.326.907a1.017,1.017,0,0,1-.757,1v.043a.9.9,0,0,1,.511.455A10.044,10.044,0,0,1,204.455,37.3Zm-1.084-2.658q0-.575-.74-.575a2.537,2.537,0,0,0-.48.04q.032.448.032,1.167.159.006.269.006Q203.371,35.284,203.371,34.646Z" transform="translate(918.16 268.172)"/><path class="h" d="M218.127,35.163a2.075,2.075,0,0,1-.543,1.471,1.762,1.762,0,0,1-1.345.584,1.7,1.7,0,0,1-1.277-.536,1.887,1.887,0,0,1-.514-1.362,2.074,2.074,0,0,1,.543-1.471,1.762,1.762,0,0,1,1.345-.584,1.7,1.7,0,0,1,1.277.534A1.887,1.887,0,0,1,218.127,35.163Zm-.8.084a1.492,1.492,0,0,0-.309-.98.952.952,0,0,0-.763-.377.881.881,0,0,0-.717.378,1.51,1.51,0,0,0-.3.956,1.488,1.488,0,0,0,.311.978.952.952,0,0,0,.761.377.88.88,0,0,0,.717-.38,1.511,1.511,0,0,0,.3-.953Z" transform="translate(908.629 268.363)"/><path class="h" d="M231.978,37.351h-.818q.037-.9.038-1.967,0-1.055-.038-1.794h.818q-.038.728-.038,1.794Q231.941,36.473,231.978,37.351Z" transform="translate(896.411 268.125)"/><path class="h" d="M241.136,35.294a2.132,2.132,0,0,1-.526,1.433,1.837,1.837,0,0,1-1.473.612q-.428,0-1.179-.035.037-.873.038-1.967,0-1.052-.038-1.794h.506q.124,0,.37-.009t.321-.009a1.947,1.947,0,0,1,1.512.52A1.8,1.8,0,0,1,241.136,35.294Zm-.789.124a1.392,1.392,0,0,0-.323-.935,1.227,1.227,0,0,0-.988-.38,3.038,3.038,0,0,0-.341.027q.029.578.029,1.208,0,.691.029,1.37a1.906,1.906,0,0,0,.377.038,1.091,1.091,0,0,0,.92-.386,1.489,1.489,0,0,0,.3-.942Z" transform="translate(891.442 268.171)"/><path class="h" d="M260.473,37.351h-.924a6.1,6.1,0,0,0-.263-1.081h-1.335a5.587,5.587,0,0,0-.272,1.081h-.869q0-.113.675-1.849a14.492,14.492,0,0,0,.675-1.913h1.092a15.948,15.948,0,0,0,.611,1.885,16.546,16.546,0,0,1,.611,1.877Zm-1.335-1.632a16.351,16.351,0,0,1-.494-1.612H258.6q0,.113-.511,1.612Z" transform="translate(877.66 268.125)"/><path class="h" d="M275.5,34.526a1.126,1.126,0,0,1-.513,1.02,2.28,2.28,0,0,1-1.258.329c-.091,0-.155,0-.194-.006q0,.543.032,1.433h-.812q.037-.834.038-1.967,0-1.04-.038-1.794h.5q.108,0,.41-.009t.526-.009a1.654,1.654,0,0,1,.927.249A.84.84,0,0,1,275.5,34.526Zm-.745.159q0-.619-.821-.619a2.323,2.323,0,0,0-.433.043q.032.546.032,1.237c.048,0,.1.006.168.006Q274.754,35.352,274.754,34.685Z" transform="translate(866.004 268.174)"/><path class="h" d="M288.384,34.526a1.126,1.126,0,0,1-.513,1.02,2.282,2.282,0,0,1-1.258.329c-.091,0-.155,0-.194-.006q0,.543.032,1.433h-.812q.037-.834.038-1.967,0-1.04-.038-1.794h.5q.108,0,.41-.009t.526-.009a1.654,1.654,0,0,1,.927.249A.841.841,0,0,1,288.384,34.526Zm-.745.159q0-.619-.821-.619a2.323,2.323,0,0,0-.433.043q.032.546.032,1.237c.048,0,.1.006.168.006Q287.638,35.352,287.638,34.685Z" transform="translate(856.585 268.174)"/><path class="h" d="M306.906,35.163a2.074,2.074,0,0,1-.543,1.471,1.762,1.762,0,0,1-1.345.584,1.7,1.7,0,0,1-1.277-.536,1.888,1.888,0,0,1-.514-1.362,2.074,2.074,0,0,1,.543-1.471,1.762,1.762,0,0,1,1.345-.584,1.7,1.7,0,0,1,1.278.535A1.887,1.887,0,0,1,306.906,35.163Zm-.8.084a1.491,1.491,0,0,0-.309-.98.952.952,0,0,0-.763-.377.881.881,0,0,0-.716.378,1.51,1.51,0,0,0-.3.956,1.487,1.487,0,0,0,.311.978.951.951,0,0,0,.761.377.88.88,0,0,0,.717-.38,1.511,1.511,0,0,0,.3-.953Z" transform="translate(843.729 268.363)"/><path class="h" d="M323.043,37.349h-.714a7.056,7.056,0,0,0-.795-1.251,6.881,6.881,0,0,1-.948-1.632h-.046a10.205,10.205,0,0,1,.072,1.144q0,.714.04,1.739h-.711q.043-.9.043-1.967,0-1.055-.043-1.794h.858a5.434,5.434,0,0,0,.714,1.222,7.191,7.191,0,0,1,.872,1.54h.043a10.922,10.922,0,0,1-.069-1.157q0-.783-.04-1.607h.722Q323,34.3,323,35.381T323.043,37.349Z" transform="translate(831.507 268.127)"/></g></svg>