<svg xmlns="http://www.w3.org/2000/svg" width="46" height="32" viewBox="0 0 46 32">
  <g id="youtube-symbol" transform="translate(0 -14.676)">
    <path id="Path_1619" data-name="Path 1619" d="M45.205,19.824a5.808,5.808,0,0,0-4.973-4.512,154.863,154.863,0,0,0-17.225-.636,154.889,154.889,0,0,0-17.227.636,5.806,5.806,0,0,0-4.97,4.512A49.074,49.074,0,0,0,0,30.676,49.059,49.059,0,0,0,.8,41.528,5.806,5.806,0,0,0,5.773,46.04,154.753,154.753,0,0,0,23,46.676a154.722,154.722,0,0,0,17.225-.636A5.808,5.808,0,0,0,45.2,41.528,49.036,49.036,0,0,0,46,30.676,49.067,49.067,0,0,0,45.205,19.824ZM17.064,37.8V22.619l14.624,7.615Z" transform="translate(0 0)" fill="#fff"/>
  </g>
</svg>
